<?xml version="1.0" encoding="utf-8"?>
<!-- Generator: Adobe Illustrator 25.0.1, SVG Export Plug-In . SVG Version: 6.00 Build 0)  -->
<svg version="1.0" id="katman_1" xmlns="http://www.w3.org/2000/svg" xmlns:xlink="http://www.w3.org/1999/xlink" x="0px" y="0px"
	 viewBox="30 -9 150 150" style="enable-background:new 30 -9 150 150;" xml:space="preserve">
<style type="text/css">
	.st0{fill-rule:evenodd;clip-rule:evenodd;fill:#FCB716;}
	.st1{fill-rule:evenodd;clip-rule:evenodd;fill:#EE363F;}
	.st2{fill-rule:evenodd;clip-rule:evenodd;fill:#07AF56;}
	.st3{fill-rule:evenodd;clip-rule:evenodd;fill:#04A9DF;}
	.st4{fill-rule:evenodd;clip-rule:evenodd;fill:#A1479A;}
	.st5{fill-rule:evenodd;clip-rule:evenodd;fill:#5A5B5B;}
</style>
<g>
	<path class="st0" d="M75.8,80.4c-5.7,0-10.4,4.6-10.4,10.4c0,5.7,4.6,10.4,10.4,10.4s10.4-4.6,10.4-10.4
		C86.2,85,81.5,80.4,75.8,80.4"/>
	<path class="st1" d="M46.9,80.4c-5.7,0-10.4,4.6-10.4,10.4c0,5.7,4.6,10.4,10.4,10.4c5.7,0,10.4-4.6,10.4-10.4
		C57.3,85,52.6,80.4,46.9,80.4"/>
	<path class="st2" d="M104.8,80.4c-5.7,0-10.4,4.6-10.4,10.4c0,5.7,4.6,10.4,10.4,10.4c5.7,0,10.4-4.6,10.4-10.4
		C115.1,85,110.5,80.4,104.8,80.4"/>
	<path class="st3" d="M162.6,80.4c-5.7,0-10.4,4.6-10.4,10.4c0,5.7,4.6,10.4,10.4,10.4S173,96.4,173,90.7
		C173,85,168.3,80.4,162.6,80.4"/>
	<path class="st4" d="M133.7,80.4c-5.7,0-10.4,4.6-10.4,10.3c0,5.7,4.6,10.3,10.4,10.3c5.7,0,10.4-4.6,10.4-10.3
		C144,85,139.4,80.4,133.7,80.4"/>
	<path class="st5" d="M35,51c0-6.7,5.4-11.8,12.1-11.8c6.7,0,12.1,5,12.1,11.7v10.3c0,1-0.7,1.8-1.8,1.8c-1.1,0-1.8-0.7-1.8-1.8v-3
		h-0.2c-1.4,2.4-4.2,4.5-8.4,4.5C40.3,62.8,35,57.8,35,51 M55.5,51c0-4.8-3.7-8.5-8.5-8.5c-4.8,0-8.5,3.7-8.5,8.5
		c0,4.8,3.7,8.5,8.5,8.5C51.9,59.5,55.5,55.9,55.5,51 M68.5,70.4c-1-0.5-1.4-1.3-1.1-2.2c0.4-1,1.3-1.4,2.2-1
		c1.6,0.8,3.7,1.3,5.9,1.3c5.4,0,8.7-3.2,8.7-8.8v-1.5h-0.2c-1.4,2.4-4.2,4.5-8.4,4.5c-6.5,0-11.8-5-11.8-11.8
		c0-6.7,5.4-11.8,12.1-11.8c6.7,0,12.1,5,12.1,11.7v8.6C88,67,83.2,72,75.4,72C73.1,72,70.7,71.5,68.5,70.4 M84.4,51
		c0-4.8-3.7-8.5-8.5-8.5c-4.8,0-8.5,3.7-8.5,8.5s3.7,8.5,8.5,8.5C80.7,59.5,84.4,55.9,84.4,51 M92.7,51c0-6.7,5.3-11.8,12.1-11.8
		c6.7,0,12.1,5.1,12.1,11.8c0,6.7-5.3,11.8-12.1,11.8C98,62.8,92.7,57.8,92.7,51 M113.2,51c0-4.8-3.7-8.5-8.5-8.5
		c-4.8,0-8.5,3.7-8.5,8.5c0,4.8,3.7,8.5,8.5,8.5C109.6,59.5,113.2,55.9,113.2,51 M121.6,51c0-6.7,5.3-11.8,11.8-11.8
		c4.2,0,7,2.1,8.4,4.5h0.2v-12c0-1,0.7-1.8,1.8-1.8c1.1,0,1.8,0.7,1.8,1.8v19.3c0,6.7-5.3,11.7-12.1,11.7
		C126.9,62.8,121.6,57.8,121.6,51 M142.1,51c0-4.8-3.7-8.5-8.5-8.5c-4.8,0-8.5,3.7-8.5,8.5c0,4.8,3.7,8.5,8.5,8.5
		C138.4,59.5,142.1,55.9,142.1,51 M150.4,51c0-6.7,5.4-11.8,12.1-11.8c6.7,0,12.1,5,12.1,11.7v10.3c0,1-0.7,1.8-1.8,1.8
		c-1.1,0-1.8-0.7-1.8-1.8v-3h-0.2c-1.4,2.4-4.2,4.5-8.4,4.5C155.8,62.8,150.4,57.8,150.4,51 M171,51c0-4.8-3.7-8.5-8.5-8.5
		S154,46.2,154,51c0,4.8,3.7,8.5,8.5,8.5S171,55.9,171,51"/>
</g>
</svg>
