<?xml version="1.0" encoding="UTF-8" standalone="no"?>
<!-- Generator: Adobe Illustrator 14.0.0, SVG Export Plug-In . SVG Version: 6.00 Build 43363)  -->

<svg
   xmlns:dc="http://purl.org/dc/elements/1.1/"
   xmlns:cc="http://creativecommons.org/ns#"
   xmlns:rdf="http://www.w3.org/1999/02/22-rdf-syntax-ns#"
   xmlns:svg="http://www.w3.org/2000/svg"
   xmlns="http://www.w3.org/2000/svg"
   xmlns:sodipodi="http://sodipodi.sourceforge.net/DTD/sodipodi-0.dtd"
   xmlns:inkscape="http://www.inkscape.org/namespaces/inkscape"
   version="1.1"
   id="レイヤー_1"
   x="0px"
   y="0px"
   width="258.51382"
   height="258.56265"
   viewBox="0 0 258.51382 258.56266"
   enable-background="new 0 0 1000 258.563"
   xml:space="preserve"
   inkscape:version="0.48.4 r9939"
   sodipodi:docname="UnivOfTokyo_logo.svg"><metadata
   id="metadata69"><rdf:RDF><cc:Work
       rdf:about=""><dc:format>image/svg+xml</dc:format><dc:type
         rdf:resource="http://purl.org/dc/dcmitype/StillImage" /></cc:Work></rdf:RDF></metadata><defs
   id="defs67">
	
	
	
	
	
	
	
	
	
	
	
	
	
	
	
	
	
	
	
	
	
	
	
	
	
	
	
	
	
	
</defs><sodipodi:namedview
   pagecolor="#ffffff"
   bordercolor="#666666"
   borderopacity="1"
   objecttolerance="10"
   gridtolerance="10"
   guidetolerance="10"
   inkscape:pageopacity="0"
   inkscape:pageshadow="2"
   inkscape:window-width="640"
   inkscape:window-height="480"
   id="namedview65"
   showgrid="false"
   fit-margin-top="0"
   fit-margin-left="0"
   fit-margin-right="0"
   fit-margin-bottom="0"
   inkscape:zoom="0.403"
   inkscape:cx="500.41583"
   inkscape:cy="129.28049"
   inkscape:window-x="0"
   inkscape:window-y="0"
   inkscape:window-maximized="0"
   inkscape:current-layer="レイヤー_1" />
<path
   style="fill:#187fc3"
   inkscape:connector-curvature="0"
   id="path5"
   d="m 258.50283,128.07665 c -0.019,-2.635 -2.205,-4.878 -4.869,-4.878 -0.383,0 -0.759,0.074 -1.134,0.167 -42.904,8.871 -87.648,12.425 -133.462,9.905 -14.116,-0.783 -28.000002,0 -41.670002,1.051 -1.043,0.067 -2.065,0.192 -3.09,0.332 -10.956,1.501 -21.432,6.362 -29.55,14.292 -7.209,7.055 -12.312,16.145 -14.484,26.018 -2.611,11.873 -0.768,24.139 4.269,35.12 4.87,10.663 12.69,19.937 22.396,26.6 10.54,7.063 22.118,12.572 34.276,16.276 7.667,2.301 14.495002,3.727 22.559002,4.727 0.108,-3.051 4.711,-7.813 4.874,-10.105 0.162,-2.294 -1.572,-4.313 -3.857,-4.461 -12.562,0.476 -21.776002,0.167 -33.566002,-4.22 -12.099,-4.527 -23.047,-11.998 -31.694,-21.563 -4.16,-4.611 -7.608,-9.664 -9.832,-15.468 -2.184,-5.82 -3.113,-12.048 -2.763,-18.228 1.175,-20.771 17.34,-38.354 37.968,-41.316 11.407,-1.633 23.219,1.301 32.524002,8.104 4.857,3.536 9.009,8.099 12.048,13.251 3.449,5.861 6.333,12.065 8.343,18.568 4.173,13.55 4.549,28.367 2.765,42.351 -0.776,5.929 -2.022,11.809 -3.724,17.577 -0.954,3.259 -2.117,6.503 -3.398,9.655 -0.229,0.584 -0.366,1.2 -0.366,1.87 0,2.65 2.117,4.768 4.723,4.845 0.326,0 0.888,0.016 1.222,0.016 31.744,0 60.798,-11.424 83.315,-30.345 0.017,-0.008 0.058,-0.058 0.075,-0.066 0.926,-0.892 1.456,-2.077 1.456,-3.411 0,-0.99 -0.342,-1.858 -0.795,-2.649 -8.443,-14.652 -26.822,-35.687 -26.822,-35.687 0,0 20.801,18.617 35.717,26.773 0.806,0.424 1.686,0.773 2.683,0.773 1.333,0 2.547,-0.516 3.413,-1.409 0.055,-0.032 0.105,-0.084 0.154,-0.157 18.924,-22.479 30.307,-51.479 30.307,-83.125 -10e-4,-0.391 -0.011,-0.783 -0.011,-1.183" /><path
   style="fill:#f9be00"
   inkscape:connector-curvature="0"
   id="path7"
   d="m 24.564828,187.28565 c -5.112,-11.356 -8.271,-23.62 -9.038,-36.004 -0.088,-1.685 -0.064,-3.936 -0.072,-5.611 0,-2.319 -1.868,-4.202 -4.189,-4.202 -2.3219999,0 -7.2499999,4.235 -10.69799992,4.235 3.52300002,27.349 15.90399992,53.181 35.02099992,73.061 9.352,9.748 20.937,17.293 34.096,20.861 11.298,3.068 23.3,1.675 33.736002,-3.585 4.995,-2.535 9.589,-5.928 13.396,-10.058 4.064,-4.368 7.187,-9.695 10.083,-14.884 3.04,-5.501 5.679,-11.196 8.068,-17.024 2.518,-6.17 4.619,-12.533 7.404,-18.644 10.535,-22.981 25.374,-44.002 45.423,-59.646 9.801,-7.646 20.5,-14.064 31.864,-19.117999 5.782,-2.569 11.708,-4.763 17.77,-6.571 2.885,-0.859 5.832,-1.66 8.768,-2.359 2.629,-0.817 4.089,-3.603 3.202,-6.171 -7.342,-18.585 -19.141,-35.313 -34.024,-48.612 -0.101,-0.099 -0.188,-0.191 -0.288,-0.284 -0.855,-0.741 -1.968,-1.226 -3.202,-1.226 -1.335,0 -2.452,0.793 -3.469,1.509 -23.897,16.569 -41.496,44.242 -41.496,44.242 0,0 9.314,-23.655 29.184,-52.83 0.505,-0.7 0.725,-1.585 0.725,-2.501 0,-1.66 -0.813,-3.101 -2.068,-3.97 -0.145,-0.1 -0.303,-0.199 -0.466,-0.284 -12.295,-7.146 -25.72,-12.3320003 -39.715,-15.1080003 -10.194,-2.03499998 -20.638,-2.83499998 -31.019,-2.37599998 -0.025,-0.017 -0.067,-0.017 -0.088,-0.017 -0.058,0 -0.099,0.017 -0.158,0.017 -2.598,0.074 -4.586,2.21699998 -4.69,4.81899998 -1.322,33.9700003 5.336,92.3720003 5.336,92.3720003 0,0 -11.864,-57.55 -23.555,-89.4860003 -0.701002,-1.936 -2.434002,-3.395 -4.594002,-3.395 -0.334,0 -0.668,0.034 -0.963,0.083 -0.037,0.026 -0.071,0.049 -0.113,0.049 -0.838,0.209 -1.671,0.451 -2.51,0.693 -19.537,5.7950003 -37.605,16.2430003 -52.377,30.2430003 -2.542,2.41 -4.969,4.944 -7.333,7.579 -0.05,0.049 -0.121,0.125 -0.164,0.15 -0.8,0.892 -1.305,2.027 -1.305,3.311 0,1.316 0.472,2.685 1.451,3.435 25.524,19.379 44.348,41.451 44.348,41.451 0,0 -24.172,-17.827 -52.902,-29.15 -0.821,-0.309 -1.597,-0.726 -2.518,-0.726 -1.676,0 -3.135,0.851 -4.015,2.135 -0.017,0.018 -0.026,0.042 -0.042,0.066 -4.148,7.088 -7.6839999,14.525 -10.4269999,22.248 -3.49,9.831 -5.77,20.111999 -6.80400002,30.507999 -0.263,2.652 -0.434,5.371 2.28800002,6.855 1.076,0.599 2.272,0.692 3.458,0.458 1.759,-0.384 3.526,-0.716 5.3029999,-1.001 6.866,-1.116 13.799,-1.617 20.716,-1.559 13.892,0.134 27.724,2.66 40.712,7.495 11.985,4.494 22.942,11.507 31.246002,21.346 15.627,18.562 24.003,50.438 5.971,70.218 -8.267,9.071 -20.441002,13.492 -32.628002,12.407 -6.266,-0.594 -11.815,-2.776 -17.289,-5.736 -4.995,-2.709 -9.736,-5.828 -13.975,-9.59 -9.255,-8.237 -16.334,-18.902 -21.375,-30.118" />
</svg>